<mxfile host="app.diagrams.net" modified="2022-07-05T07:14:13.269Z" agent="5.0 (X11)" etag="p2Sq0NzuV5WeYeezEHza" version="20.0.4" type="github">
  <diagram id="Z_p_84xsb6FxlwqVOQu0" name="Page-1">
    <mxGraphModel dx="1550" dy="1561" grid="1" gridSize="10" guides="1" tooltips="1" connect="1" arrows="1" fold="1" page="1" pageScale="1" pageWidth="827" pageHeight="1169" math="0" shadow="0">
      <root>
        <mxCell id="0" />
        <mxCell id="1" parent="0" />
        <mxCell id="HgsCBd9EZ4OtUiYnFxe4-2" style="rounded=0;orthogonalLoop=1;jettySize=auto;html=1;exitX=0.25;exitY=1;exitDx=0;exitDy=0;entryX=0.75;entryY=0;entryDx=0;entryDy=0;" parent="1" source="HgsCBd9EZ4OtUiYnFxe4-1" target="HgsCBd9EZ4OtUiYnFxe4-3" edge="1">
          <mxGeometry relative="1" as="geometry">
            <mxPoint x="230" y="80" as="targetPoint" />
          </mxGeometry>
        </mxCell>
        <mxCell id="HgsCBd9EZ4OtUiYnFxe4-37" style="edgeStyle=none;rounded=0;orthogonalLoop=1;jettySize=auto;html=1;exitX=0.75;exitY=1;exitDx=0;exitDy=0;entryX=0.25;entryY=0;entryDx=0;entryDy=0;fontSize=12;fontColor=#000000;" parent="1" source="HgsCBd9EZ4OtUiYnFxe4-1" target="HgsCBd9EZ4OtUiYnFxe4-34" edge="1">
          <mxGeometry relative="1" as="geometry" />
        </mxCell>
        <mxCell id="HgsCBd9EZ4OtUiYnFxe4-1" value="be-Verb comes after subject &quot;I&quot;" style="whiteSpace=wrap;html=1;" parent="1" vertex="1">
          <mxGeometry x="360" y="110" width="190" height="30" as="geometry" />
        </mxCell>
        <mxCell id="HgsCBd9EZ4OtUiYnFxe4-6" style="edgeStyle=none;rounded=0;orthogonalLoop=1;jettySize=auto;html=1;exitX=0.25;exitY=1;exitDx=0;exitDy=0;entryX=0.75;entryY=0;entryDx=0;entryDy=0;" parent="1" source="HgsCBd9EZ4OtUiYnFxe4-3" target="HgsCBd9EZ4OtUiYnFxe4-5" edge="1">
          <mxGeometry relative="1" as="geometry" />
        </mxCell>
        <mxCell id="HgsCBd9EZ4OtUiYnFxe4-3" value="&quot;was&quot; or &quot;were&quot;" style="whiteSpace=wrap;html=1;" parent="1" vertex="1">
          <mxGeometry x="200" y="160" width="90" height="30" as="geometry" />
        </mxCell>
        <mxCell id="HgsCBd9EZ4OtUiYnFxe4-61" style="edgeStyle=none;rounded=0;orthogonalLoop=1;jettySize=auto;html=1;exitX=0.75;exitY=1;exitDx=0;exitDy=0;entryX=0.25;entryY=0;entryDx=0;entryDy=0;fontSize=12;fontColor=#000000;" parent="1" source="HgsCBd9EZ4OtUiYnFxe4-4" target="HgsCBd9EZ4OtUiYnFxe4-60" edge="1">
          <mxGeometry relative="1" as="geometry" />
        </mxCell>
        <mxCell id="HgsCBd9EZ4OtUiYnFxe4-79" style="edgeStyle=none;rounded=0;orthogonalLoop=1;jettySize=auto;html=1;exitX=0.25;exitY=1;exitDx=0;exitDy=0;entryX=0.75;entryY=0;entryDx=0;entryDy=0;fontSize=12;fontColor=#000000;" parent="1" source="HgsCBd9EZ4OtUiYnFxe4-4" target="HgsCBd9EZ4OtUiYnFxe4-78" edge="1">
          <mxGeometry relative="1" as="geometry" />
        </mxCell>
        <mxCell id="HgsCBd9EZ4OtUiYnFxe4-4" value="&quot;had&quot; &amp;amp;&amp;amp; V-p.p. " style="whiteSpace=wrap;html=1;" parent="1" vertex="1">
          <mxGeometry x="790" y="250" width="100" height="35" as="geometry" />
        </mxCell>
        <mxCell id="HgsCBd9EZ4OtUiYnFxe4-8" style="edgeStyle=none;rounded=0;orthogonalLoop=1;jettySize=auto;html=1;exitX=0.25;exitY=1;exitDx=0;exitDy=0;entryX=0.794;entryY=0;entryDx=0;entryDy=0;entryPerimeter=0;" parent="1" source="HgsCBd9EZ4OtUiYnFxe4-5" target="HgsCBd9EZ4OtUiYnFxe4-7" edge="1">
          <mxGeometry relative="1" as="geometry" />
        </mxCell>
        <mxCell id="HgsCBd9EZ4OtUiYnFxe4-17" style="edgeStyle=none;rounded=0;orthogonalLoop=1;jettySize=auto;html=1;exitX=0.75;exitY=1;exitDx=0;exitDy=0;entryX=0.308;entryY=-0.025;entryDx=0;entryDy=0;entryPerimeter=0;fontSize=12;fontColor=#000000;" parent="1" source="HgsCBd9EZ4OtUiYnFxe4-5" target="HgsCBd9EZ4OtUiYnFxe4-16" edge="1">
          <mxGeometry relative="1" as="geometry" />
        </mxCell>
        <mxCell id="HgsCBd9EZ4OtUiYnFxe4-5" value="&quot;to&quot; " style="whiteSpace=wrap;html=1;" parent="1" vertex="1">
          <mxGeometry x="80" y="220" width="100" height="30" as="geometry" />
        </mxCell>
        <mxCell id="HgsCBd9EZ4OtUiYnFxe4-70" style="edgeStyle=none;rounded=0;orthogonalLoop=1;jettySize=auto;html=1;exitX=0.25;exitY=1;exitDx=0;exitDy=0;entryX=0.75;entryY=0;entryDx=0;entryDy=0;fontSize=12;fontColor=#000000;" parent="1" source="HgsCBd9EZ4OtUiYnFxe4-7" target="HgsCBd9EZ4OtUiYnFxe4-69" edge="1">
          <mxGeometry relative="1" as="geometry" />
        </mxCell>
        <mxCell id="HgsCBd9EZ4OtUiYnFxe4-7" value="original form of verb comes" style="whiteSpace=wrap;html=1;" parent="1" vertex="1">
          <mxGeometry x="-20" y="290" width="110" height="40" as="geometry" />
        </mxCell>
        <mxCell id="HgsCBd9EZ4OtUiYnFxe4-55" style="edgeStyle=none;rounded=0;orthogonalLoop=1;jettySize=auto;html=1;exitX=0.25;exitY=1;exitDx=0;exitDy=0;entryX=0.5;entryY=0;entryDx=0;entryDy=0;fontSize=12;fontColor=#000000;" parent="1" source="HgsCBd9EZ4OtUiYnFxe4-9" target="HgsCBd9EZ4OtUiYnFxe4-13" edge="1">
          <mxGeometry relative="1" as="geometry" />
        </mxCell>
        <mxCell id="HgsCBd9EZ4OtUiYnFxe4-9" value="original form of a verb comes after &quot;would&quot;" style="whiteSpace=wrap;html=1;" parent="1" vertex="1">
          <mxGeometry x="-330" y="550" width="120" height="60" as="geometry" />
        </mxCell>
        <mxCell id="HgsCBd9EZ4OtUiYnFxe4-10" value="&lt;font style=&quot;font-size: 18px;&quot;&gt;&lt;b&gt;&lt;font color=&quot;#00CC00&quot;&gt;If I ....&lt;/font&gt; , &lt;font color=&quot;#0000FF&quot;&gt;I would ....&lt;/font&gt; .&lt;/b&gt;&lt;/font&gt;" style="ellipse;whiteSpace=wrap;html=1;" parent="1" vertex="1">
          <mxGeometry x="520" y="-110" width="220" height="60" as="geometry" />
        </mxCell>
        <mxCell id="HgsCBd9EZ4OtUiYnFxe4-13" value="&lt;div&gt;&lt;font style=&quot;font-size: 12px;&quot; color=&quot;#000000&quot;&gt;If I were to V,&lt;/font&gt;&lt;/div&gt;&lt;div&gt;&lt;font style=&quot;font-size: 12px;&quot; color=&quot;#000000&quot;&gt;I would V&#39;.&lt;br&gt;&lt;/font&gt;&lt;/div&gt;" style="whiteSpace=wrap;html=1;fontSize=18;fontColor=#0000FF;strokeWidth=4;" parent="1" vertex="1">
          <mxGeometry x="-360" y="750" width="120" height="60" as="geometry" />
        </mxCell>
        <mxCell id="HgsCBd9EZ4OtUiYnFxe4-73" style="edgeStyle=none;rounded=0;orthogonalLoop=1;jettySize=auto;html=1;exitX=0.25;exitY=1;exitDx=0;exitDy=0;entryX=0.75;entryY=0;entryDx=0;entryDy=0;fontSize=12;fontColor=#000000;" parent="1" source="HgsCBd9EZ4OtUiYnFxe4-16" target="HgsCBd9EZ4OtUiYnFxe4-72" edge="1">
          <mxGeometry relative="1" as="geometry" />
        </mxCell>
        <mxCell id="HgsCBd9EZ4OtUiYnFxe4-16" value="&lt;div&gt;noun (phrase)&lt;/div&gt;&lt;div&gt;or adjective (-tival phrase)&lt;br&gt;&lt;/div&gt;" style="whiteSpace=wrap;html=1;fontSize=12;fontColor=#000000;strokeWidth=1;" parent="1" vertex="1">
          <mxGeometry x="160" y="290" width="140" height="40" as="geometry" />
        </mxCell>
        <mxCell id="HgsCBd9EZ4OtUiYnFxe4-56" style="edgeStyle=none;rounded=0;orthogonalLoop=1;jettySize=auto;html=1;exitX=0.25;exitY=1;exitDx=0;exitDy=0;entryX=0.5;entryY=0;entryDx=0;entryDy=0;fontSize=12;fontColor=#000000;" parent="1" source="HgsCBd9EZ4OtUiYnFxe4-18" target="HgsCBd9EZ4OtUiYnFxe4-21" edge="1">
          <mxGeometry relative="1" as="geometry" />
        </mxCell>
        <mxCell id="HgsCBd9EZ4OtUiYnFxe4-18" value="original form of a verb comes after &quot;would&quot;" style="whiteSpace=wrap;html=1;" parent="1" vertex="1">
          <mxGeometry x="-100" y="555" width="120" height="60" as="geometry" />
        </mxCell>
        <mxCell id="HgsCBd9EZ4OtUiYnFxe4-21" value="&lt;div&gt;&lt;font style=&quot;font-size: 12px;&quot; color=&quot;#000000&quot;&gt;If I were N(NP),&lt;/font&gt;&lt;/div&gt;&lt;div&gt;&lt;font style=&quot;font-size: 12px;&quot; color=&quot;#000000&quot;&gt;I would V&#39;.&lt;br&gt;&lt;/font&gt;&lt;/div&gt;" style="whiteSpace=wrap;html=1;fontSize=18;fontColor=#0000FF;strokeWidth=4;" parent="1" vertex="1">
          <mxGeometry x="-130" y="750" width="120" height="60" as="geometry" />
        </mxCell>
        <mxCell id="HgsCBd9EZ4OtUiYnFxe4-25" style="edgeStyle=none;rounded=0;orthogonalLoop=1;jettySize=auto;html=1;exitX=0.25;exitY=1;exitDx=0;exitDy=0;entryX=0.75;entryY=0;entryDx=0;entryDy=0;fontSize=12;fontColor=#000000;" parent="1" source="HgsCBd9EZ4OtUiYnFxe4-23" target="HgsCBd9EZ4OtUiYnFxe4-9" edge="1">
          <mxGeometry relative="1" as="geometry" />
        </mxCell>
        <mxCell id="HgsCBd9EZ4OtUiYnFxe4-23" value="&amp;nbsp;&quot;would&quot; comes after subject &quot;I&quot;" style="whiteSpace=wrap;html=1;" parent="1" vertex="1">
          <mxGeometry x="-230" y="440" width="120" height="60" as="geometry" />
        </mxCell>
        <mxCell id="HgsCBd9EZ4OtUiYnFxe4-28" style="edgeStyle=none;rounded=0;orthogonalLoop=1;jettySize=auto;html=1;exitX=0.25;exitY=1;exitDx=0;exitDy=0;entryX=0.75;entryY=0;entryDx=0;entryDy=0;fontSize=12;fontColor=#000000;" parent="1" source="HgsCBd9EZ4OtUiYnFxe4-26" target="HgsCBd9EZ4OtUiYnFxe4-18" edge="1">
          <mxGeometry relative="1" as="geometry" />
        </mxCell>
        <mxCell id="HgsCBd9EZ4OtUiYnFxe4-26" value="&amp;nbsp;&quot;would&quot; comes after subject &quot;I&quot;" style="whiteSpace=wrap;html=1;" parent="1" vertex="1">
          <mxGeometry x="-10" y="440" width="120" height="60" as="geometry" />
        </mxCell>
        <mxCell id="HgsCBd9EZ4OtUiYnFxe4-38" style="edgeStyle=none;rounded=0;orthogonalLoop=1;jettySize=auto;html=1;exitX=0.25;exitY=1;exitDx=0;exitDy=0;entryX=0.79;entryY=-0.024;entryDx=0;entryDy=0;entryPerimeter=0;fontSize=12;fontColor=#000000;" parent="1" source="HgsCBd9EZ4OtUiYnFxe4-30" target="HgsCBd9EZ4OtUiYnFxe4-33" edge="1">
          <mxGeometry relative="1" as="geometry" />
        </mxCell>
        <mxCell id="HgsCBd9EZ4OtUiYnFxe4-30" value="&amp;nbsp;&quot;would&quot; comes after subject &quot;I&quot;" style="whiteSpace=wrap;html=1;" parent="1" vertex="1">
          <mxGeometry x="530" y="410" width="120" height="60" as="geometry" />
        </mxCell>
        <mxCell id="HgsCBd9EZ4OtUiYnFxe4-52" style="edgeStyle=none;rounded=0;orthogonalLoop=1;jettySize=auto;html=1;exitX=0.75;exitY=1;exitDx=0;exitDy=0;entryX=0.25;entryY=0;entryDx=0;entryDy=0;fontSize=12;fontColor=#000000;" parent="1" source="HgsCBd9EZ4OtUiYnFxe4-33" target="HgsCBd9EZ4OtUiYnFxe4-51" edge="1">
          <mxGeometry relative="1" as="geometry" />
        </mxCell>
        <mxCell id="HgsCBd9EZ4OtUiYnFxe4-54" style="edgeStyle=none;rounded=0;orthogonalLoop=1;jettySize=auto;html=1;exitX=0.25;exitY=1;exitDx=0;exitDy=0;entryX=0.5;entryY=0;entryDx=0;entryDy=0;fontSize=12;fontColor=#000000;" parent="1" source="HgsCBd9EZ4OtUiYnFxe4-33" target="HgsCBd9EZ4OtUiYnFxe4-53" edge="1">
          <mxGeometry relative="1" as="geometry" />
        </mxCell>
        <mxCell id="HgsCBd9EZ4OtUiYnFxe4-33" value="&quot;have&quot; &amp;amp;&amp;amp; V-p.p " style="whiteSpace=wrap;html=1;fontSize=12;fontColor=#000000;strokeWidth=1;" parent="1" vertex="1">
          <mxGeometry x="430" y="530" width="120" height="60" as="geometry" />
        </mxCell>
        <mxCell id="HgsCBd9EZ4OtUiYnFxe4-39" style="edgeStyle=none;rounded=0;orthogonalLoop=1;jettySize=auto;html=1;exitX=0.75;exitY=1;exitDx=0;exitDy=0;entryX=0.306;entryY=-0.082;entryDx=0;entryDy=0;entryPerimeter=0;fontSize=12;fontColor=#000000;" parent="1" source="HgsCBd9EZ4OtUiYnFxe4-34" target="HgsCBd9EZ4OtUiYnFxe4-4" edge="1">
          <mxGeometry relative="1" as="geometry" />
        </mxCell>
        <mxCell id="HgsCBd9EZ4OtUiYnFxe4-42" style="edgeStyle=none;rounded=0;orthogonalLoop=1;jettySize=auto;html=1;exitX=0.25;exitY=1;exitDx=0;exitDy=0;entryX=0.75;entryY=0;entryDx=0;entryDy=0;fontSize=12;fontColor=#000000;" parent="1" source="HgsCBd9EZ4OtUiYnFxe4-34" target="HgsCBd9EZ4OtUiYnFxe4-41" edge="1">
          <mxGeometry relative="1" as="geometry" />
        </mxCell>
        <mxCell id="HgsCBd9EZ4OtUiYnFxe4-34" value="&quot;should&quot;" style="whiteSpace=wrap;html=1;fontSize=12;fontColor=#000000;strokeWidth=1;" parent="1" vertex="1">
          <mxGeometry x="610" y="160" width="90" height="30" as="geometry" />
        </mxCell>
        <mxCell id="HgsCBd9EZ4OtUiYnFxe4-36" style="edgeStyle=none;rounded=0;orthogonalLoop=1;jettySize=auto;html=1;exitX=0.25;exitY=1;exitDx=0;exitDy=0;entryX=0.668;entryY=0;entryDx=0;entryDy=0;entryPerimeter=0;fontSize=12;fontColor=#000000;" parent="1" source="HgsCBd9EZ4OtUiYnFxe4-35" target="HgsCBd9EZ4OtUiYnFxe4-1" edge="1">
          <mxGeometry relative="1" as="geometry" />
        </mxCell>
        <mxCell id="V-IdtBLT0dB0t9Ifpjs--2" style="rounded=0;orthogonalLoop=1;jettySize=auto;html=1;exitX=0.75;exitY=1;exitDx=0;exitDy=0;entryX=0.25;entryY=0;entryDx=0;entryDy=0;" edge="1" parent="1" source="HgsCBd9EZ4OtUiYnFxe4-35" target="V-IdtBLT0dB0t9Ifpjs--1">
          <mxGeometry relative="1" as="geometry" />
        </mxCell>
        <mxCell id="HgsCBd9EZ4OtUiYnFxe4-35" value="&quot;If&quot; comes the head of a sentence" style="whiteSpace=wrap;html=1;fontSize=12;fontColor=#000000;strokeWidth=1;" parent="1" vertex="1">
          <mxGeometry x="575" y="-40" width="110" height="50" as="geometry" />
        </mxCell>
        <mxCell id="HgsCBd9EZ4OtUiYnFxe4-76" style="edgeStyle=none;rounded=0;orthogonalLoop=1;jettySize=auto;html=1;exitX=0.25;exitY=1;exitDx=0;exitDy=0;entryX=0.75;entryY=0;entryDx=0;entryDy=0;fontSize=12;fontColor=#000000;" parent="1" source="HgsCBd9EZ4OtUiYnFxe4-41" target="HgsCBd9EZ4OtUiYnFxe4-75" edge="1">
          <mxGeometry relative="1" as="geometry" />
        </mxCell>
        <mxCell id="HgsCBd9EZ4OtUiYnFxe4-41" value="original form of a verb comes after &quot;should&quot;" style="whiteSpace=wrap;html=1;" parent="1" vertex="1">
          <mxGeometry x="420" y="255" width="120" height="60" as="geometry" />
        </mxCell>
        <mxCell id="HgsCBd9EZ4OtUiYnFxe4-47" style="edgeStyle=none;rounded=0;orthogonalLoop=1;jettySize=auto;html=1;exitX=0.25;exitY=1;exitDx=0;exitDy=0;entryX=0.7;entryY=0.033;entryDx=0;entryDy=0;entryPerimeter=0;fontSize=12;fontColor=#000000;" parent="1" source="HgsCBd9EZ4OtUiYnFxe4-44" target="HgsCBd9EZ4OtUiYnFxe4-46" edge="1">
          <mxGeometry relative="1" as="geometry" />
        </mxCell>
        <mxCell id="HgsCBd9EZ4OtUiYnFxe4-44" value="&amp;nbsp;&quot;would&quot; comes after subject &quot;I&quot;" style="whiteSpace=wrap;html=1;" parent="1" vertex="1">
          <mxGeometry x="260" y="450" width="120" height="60" as="geometry" />
        </mxCell>
        <mxCell id="HgsCBd9EZ4OtUiYnFxe4-57" style="edgeStyle=none;rounded=0;orthogonalLoop=1;jettySize=auto;html=1;exitX=0.25;exitY=1;exitDx=0;exitDy=0;entryX=0.5;entryY=0;entryDx=0;entryDy=0;fontSize=12;fontColor=#000000;" parent="1" source="HgsCBd9EZ4OtUiYnFxe4-46" target="HgsCBd9EZ4OtUiYnFxe4-48" edge="1">
          <mxGeometry relative="1" as="geometry" />
        </mxCell>
        <mxCell id="HgsCBd9EZ4OtUiYnFxe4-46" value="original form of a verb comes after &quot;would&quot;" style="whiteSpace=wrap;html=1;" parent="1" vertex="1">
          <mxGeometry x="170" y="560" width="120" height="60" as="geometry" />
        </mxCell>
        <mxCell id="HgsCBd9EZ4OtUiYnFxe4-48" value="&lt;div&gt;&lt;font style=&quot;font-size: 12px;&quot; color=&quot;#000000&quot;&gt;If I should V,&lt;/font&gt;&lt;/div&gt;&lt;div&gt;&lt;font style=&quot;font-size: 12px;&quot; color=&quot;#000000&quot;&gt;I would V&#39;.&lt;br&gt;&lt;/font&gt;&lt;/div&gt;" style="whiteSpace=wrap;html=1;fontSize=18;fontColor=#0000FF;strokeWidth=4;" parent="1" vertex="1">
          <mxGeometry x="140" y="750" width="120" height="60" as="geometry" />
        </mxCell>
        <mxCell id="HgsCBd9EZ4OtUiYnFxe4-59" style="edgeStyle=none;rounded=0;orthogonalLoop=1;jettySize=auto;html=1;exitX=0.25;exitY=1;exitDx=0;exitDy=0;entryX=0.5;entryY=0;entryDx=0;entryDy=0;fontSize=12;fontColor=#000000;" parent="1" source="HgsCBd9EZ4OtUiYnFxe4-51" target="HgsCBd9EZ4OtUiYnFxe4-58" edge="1">
          <mxGeometry relative="1" as="geometry" />
        </mxCell>
        <mxCell id="HgsCBd9EZ4OtUiYnFxe4-51" value="original form of a verb comes after &quot;would&quot;" style="whiteSpace=wrap;html=1;" parent="1" vertex="1">
          <mxGeometry x="570" y="630" width="120" height="60" as="geometry" />
        </mxCell>
        <mxCell id="HgsCBd9EZ4OtUiYnFxe4-53" value="&lt;div&gt;&lt;font style=&quot;font-size: 12px;&quot; color=&quot;#000000&quot;&gt;If I had V-p.p.,&lt;/font&gt;&lt;/div&gt;&lt;div&gt;&lt;font style=&quot;font-size: 12px;&quot; color=&quot;#000000&quot;&gt;I would have V&#39;-p.p.&lt;br&gt;&lt;/font&gt;&lt;/div&gt;" style="whiteSpace=wrap;html=1;fontSize=18;fontColor=#0000FF;strokeWidth=4;" parent="1" vertex="1">
          <mxGeometry x="400" y="760" width="120" height="60" as="geometry" />
        </mxCell>
        <mxCell id="HgsCBd9EZ4OtUiYnFxe4-58" value="&lt;div&gt;&lt;font style=&quot;font-size: 12px;&quot; color=&quot;#000000&quot;&gt;If I had V-p.p.,&lt;/font&gt;&lt;/div&gt;&lt;div&gt;&lt;font style=&quot;font-size: 12px;&quot; color=&quot;#000000&quot;&gt;I would V&#39;.&lt;br&gt;&lt;/font&gt;&lt;/div&gt;" style="whiteSpace=wrap;html=1;fontSize=18;fontColor=#0000FF;strokeWidth=4;" parent="1" vertex="1">
          <mxGeometry x="540" y="760" width="120" height="60" as="geometry" />
        </mxCell>
        <mxCell id="HgsCBd9EZ4OtUiYnFxe4-82" style="edgeStyle=none;rounded=0;orthogonalLoop=1;jettySize=auto;html=1;exitX=0.25;exitY=1;exitDx=0;exitDy=0;entryX=0.75;entryY=0;entryDx=0;entryDy=0;fontSize=12;fontColor=#000000;" parent="1" source="HgsCBd9EZ4OtUiYnFxe4-60" target="HgsCBd9EZ4OtUiYnFxe4-81" edge="1">
          <mxGeometry relative="1" as="geometry" />
        </mxCell>
        <mxCell id="HgsCBd9EZ4OtUiYnFxe4-60" value="past form of a verb comes after subject &quot;I&quot;" style="whiteSpace=wrap;html=1;" parent="1" vertex="1">
          <mxGeometry x="980" y="345" width="140" height="60" as="geometry" />
        </mxCell>
        <mxCell id="HgsCBd9EZ4OtUiYnFxe4-66" style="edgeStyle=none;rounded=0;orthogonalLoop=1;jettySize=auto;html=1;exitX=0.25;exitY=1;exitDx=0;exitDy=0;entryX=0.75;entryY=0;entryDx=0;entryDy=0;fontSize=12;fontColor=#000000;" parent="1" source="HgsCBd9EZ4OtUiYnFxe4-64" target="HgsCBd9EZ4OtUiYnFxe4-65" edge="1">
          <mxGeometry relative="1" as="geometry" />
        </mxCell>
        <mxCell id="HgsCBd9EZ4OtUiYnFxe4-64" value="&amp;nbsp;&quot;would&quot; comes after subject &quot;I&quot;" style="whiteSpace=wrap;html=1;" parent="1" vertex="1">
          <mxGeometry x="820" y="530" width="120" height="60" as="geometry" />
        </mxCell>
        <mxCell id="HgsCBd9EZ4OtUiYnFxe4-68" style="edgeStyle=none;rounded=0;orthogonalLoop=1;jettySize=auto;html=1;exitX=0.25;exitY=1;exitDx=0;exitDy=0;entryX=0.5;entryY=0;entryDx=0;entryDy=0;fontSize=12;fontColor=#000000;" parent="1" source="HgsCBd9EZ4OtUiYnFxe4-65" target="HgsCBd9EZ4OtUiYnFxe4-67" edge="1">
          <mxGeometry relative="1" as="geometry" />
        </mxCell>
        <mxCell id="HgsCBd9EZ4OtUiYnFxe4-65" value="original form of a verb comes after &quot;would&quot;" style="whiteSpace=wrap;html=1;" parent="1" vertex="1">
          <mxGeometry x="730" y="630" width="120" height="60" as="geometry" />
        </mxCell>
        <mxCell id="HgsCBd9EZ4OtUiYnFxe4-67" value="&lt;div&gt;&lt;font style=&quot;font-size: 12px;&quot; color=&quot;#000000&quot;&gt;If I V-past,&lt;/font&gt;&lt;/div&gt;&lt;div&gt;&lt;font style=&quot;font-size: 12px;&quot; color=&quot;#000000&quot;&gt;I would V&#39;.&lt;br&gt;&lt;/font&gt;&lt;/div&gt;" style="whiteSpace=wrap;html=1;fontSize=18;fontColor=#0000FF;strokeWidth=4;" parent="1" vertex="1">
          <mxGeometry x="700" y="760" width="120" height="60" as="geometry" />
        </mxCell>
        <mxCell id="HgsCBd9EZ4OtUiYnFxe4-71" style="edgeStyle=none;rounded=0;orthogonalLoop=1;jettySize=auto;html=1;exitX=0.25;exitY=1;exitDx=0;exitDy=0;entryX=0.75;entryY=0;entryDx=0;entryDy=0;fontSize=12;fontColor=#000000;" parent="1" source="HgsCBd9EZ4OtUiYnFxe4-69" target="HgsCBd9EZ4OtUiYnFxe4-23" edge="1">
          <mxGeometry relative="1" as="geometry" />
        </mxCell>
        <mxCell id="HgsCBd9EZ4OtUiYnFxe4-69" value="comma comes" style="whiteSpace=wrap;html=1;fontSize=12;fontColor=#000000;strokeWidth=1;" parent="1" vertex="1">
          <mxGeometry x="-110" y="375" width="90" height="30" as="geometry" />
        </mxCell>
        <mxCell id="HgsCBd9EZ4OtUiYnFxe4-74" style="edgeStyle=none;rounded=0;orthogonalLoop=1;jettySize=auto;html=1;exitX=0.25;exitY=1;exitDx=0;exitDy=0;entryX=0.75;entryY=0;entryDx=0;entryDy=0;fontSize=12;fontColor=#000000;" parent="1" source="HgsCBd9EZ4OtUiYnFxe4-72" target="HgsCBd9EZ4OtUiYnFxe4-26" edge="1">
          <mxGeometry relative="1" as="geometry" />
        </mxCell>
        <mxCell id="HgsCBd9EZ4OtUiYnFxe4-72" value="comma comes" style="whiteSpace=wrap;html=1;fontSize=12;fontColor=#000000;strokeWidth=1;" parent="1" vertex="1">
          <mxGeometry x="90" y="380" width="90" height="30" as="geometry" />
        </mxCell>
        <mxCell id="HgsCBd9EZ4OtUiYnFxe4-77" style="edgeStyle=none;rounded=0;orthogonalLoop=1;jettySize=auto;html=1;exitX=0.25;exitY=1;exitDx=0;exitDy=0;entryX=0.75;entryY=0;entryDx=0;entryDy=0;fontSize=12;fontColor=#000000;" parent="1" source="HgsCBd9EZ4OtUiYnFxe4-75" target="HgsCBd9EZ4OtUiYnFxe4-44" edge="1">
          <mxGeometry relative="1" as="geometry" />
        </mxCell>
        <mxCell id="HgsCBd9EZ4OtUiYnFxe4-75" value="comma comes" style="whiteSpace=wrap;html=1;fontSize=12;fontColor=#000000;strokeWidth=1;" parent="1" vertex="1">
          <mxGeometry x="360" y="375" width="90" height="30" as="geometry" />
        </mxCell>
        <mxCell id="HgsCBd9EZ4OtUiYnFxe4-80" style="edgeStyle=none;rounded=0;orthogonalLoop=1;jettySize=auto;html=1;exitX=0.25;exitY=1;exitDx=0;exitDy=0;entryX=0.75;entryY=0;entryDx=0;entryDy=0;fontSize=12;fontColor=#000000;" parent="1" source="HgsCBd9EZ4OtUiYnFxe4-78" target="HgsCBd9EZ4OtUiYnFxe4-30" edge="1">
          <mxGeometry relative="1" as="geometry" />
        </mxCell>
        <mxCell id="HgsCBd9EZ4OtUiYnFxe4-78" value="comma comes" style="whiteSpace=wrap;html=1;fontSize=12;fontColor=#000000;strokeWidth=1;" parent="1" vertex="1">
          <mxGeometry x="610" y="345" width="90" height="30" as="geometry" />
        </mxCell>
        <mxCell id="HgsCBd9EZ4OtUiYnFxe4-83" style="edgeStyle=none;rounded=0;orthogonalLoop=1;jettySize=auto;html=1;exitX=0.25;exitY=1;exitDx=0;exitDy=0;entryX=0.75;entryY=0;entryDx=0;entryDy=0;fontSize=12;fontColor=#000000;" parent="1" source="HgsCBd9EZ4OtUiYnFxe4-81" target="HgsCBd9EZ4OtUiYnFxe4-64" edge="1">
          <mxGeometry relative="1" as="geometry" />
        </mxCell>
        <mxCell id="HgsCBd9EZ4OtUiYnFxe4-81" value="comma comes" style="whiteSpace=wrap;html=1;fontSize=12;fontColor=#000000;strokeWidth=1;" parent="1" vertex="1">
          <mxGeometry x="910" y="440" width="90" height="30" as="geometry" />
        </mxCell>
        <mxCell id="HgsCBd9EZ4OtUiYnFxe4-84" value="Yes" style="text;html=1;strokeColor=none;fillColor=none;align=center;verticalAlign=middle;whiteSpace=wrap;rounded=0;fontSize=12;fontColor=#000000;" parent="1" vertex="1">
          <mxGeometry x="540" y="30" width="30" height="20" as="geometry" />
        </mxCell>
        <mxCell id="HgsCBd9EZ4OtUiYnFxe4-85" value="Yes" style="text;html=1;strokeColor=none;fillColor=none;align=center;verticalAlign=middle;whiteSpace=wrap;rounded=0;fontSize=12;fontColor=#000000;" parent="1" vertex="1">
          <mxGeometry x="320" y="130" width="30" height="20" as="geometry" />
        </mxCell>
        <mxCell id="HgsCBd9EZ4OtUiYnFxe4-86" value="Yes" style="text;html=1;strokeColor=none;fillColor=none;align=center;verticalAlign=middle;whiteSpace=wrap;rounded=0;fontSize=12;fontColor=#000000;" parent="1" vertex="1">
          <mxGeometry x="160" y="190" width="30" height="20" as="geometry" />
        </mxCell>
        <mxCell id="HgsCBd9EZ4OtUiYnFxe4-87" value="Yes" style="text;html=1;strokeColor=none;fillColor=none;align=center;verticalAlign=middle;whiteSpace=wrap;rounded=0;fontSize=12;fontColor=#000000;" parent="1" vertex="1">
          <mxGeometry x="60" y="255" width="30" height="20" as="geometry" />
        </mxCell>
        <mxCell id="HgsCBd9EZ4OtUiYnFxe4-88" value="Yes" style="text;html=1;strokeColor=none;fillColor=none;align=center;verticalAlign=middle;whiteSpace=wrap;rounded=0;fontSize=12;fontColor=#000000;" parent="1" vertex="1">
          <mxGeometry x="-40" y="340" width="30" height="20" as="geometry" />
        </mxCell>
        <mxCell id="HgsCBd9EZ4OtUiYnFxe4-89" value="Yes" style="text;html=1;strokeColor=none;fillColor=none;align=center;verticalAlign=middle;whiteSpace=wrap;rounded=0;fontSize=12;fontColor=#000000;" parent="1" vertex="1">
          <mxGeometry x="-140" y="410" width="30" height="20" as="geometry" />
        </mxCell>
        <mxCell id="HgsCBd9EZ4OtUiYnFxe4-90" value="Yes" style="text;html=1;strokeColor=none;fillColor=none;align=center;verticalAlign=middle;whiteSpace=wrap;rounded=0;fontSize=12;fontColor=#000000;" parent="1" vertex="1">
          <mxGeometry x="-250" y="510" width="30" height="20" as="geometry" />
        </mxCell>
        <mxCell id="HgsCBd9EZ4OtUiYnFxe4-91" value="Yes" style="text;html=1;strokeColor=none;fillColor=none;align=center;verticalAlign=middle;whiteSpace=wrap;rounded=0;fontSize=12;fontColor=#000000;" parent="1" vertex="1">
          <mxGeometry x="-330" y="640" width="30" height="20" as="geometry" />
        </mxCell>
        <mxCell id="HgsCBd9EZ4OtUiYnFxe4-92" value="No" style="text;html=1;strokeColor=none;fillColor=none;align=center;verticalAlign=middle;whiteSpace=wrap;rounded=0;fontSize=12;fontColor=#000000;" parent="1" vertex="1">
          <mxGeometry x="180" y="255" width="30" height="20" as="geometry" />
        </mxCell>
        <mxCell id="HgsCBd9EZ4OtUiYnFxe4-93" value="Yes" style="text;html=1;strokeColor=none;fillColor=none;align=center;verticalAlign=middle;whiteSpace=wrap;rounded=0;fontSize=12;fontColor=#000000;" parent="1" vertex="1">
          <mxGeometry x="150" y="340" width="30" height="20" as="geometry" />
        </mxCell>
        <mxCell id="HgsCBd9EZ4OtUiYnFxe4-94" value="Yes" style="text;html=1;strokeColor=none;fillColor=none;align=center;verticalAlign=middle;whiteSpace=wrap;rounded=0;fontSize=12;fontColor=#000000;" parent="1" vertex="1">
          <mxGeometry x="70" y="410" width="30" height="20" as="geometry" />
        </mxCell>
        <mxCell id="HgsCBd9EZ4OtUiYnFxe4-95" value="Yes" style="text;html=1;strokeColor=none;fillColor=none;align=center;verticalAlign=middle;whiteSpace=wrap;rounded=0;fontSize=12;fontColor=#000000;" parent="1" vertex="1">
          <mxGeometry x="-30" y="510" width="30" height="20" as="geometry" />
        </mxCell>
        <mxCell id="HgsCBd9EZ4OtUiYnFxe4-96" value="Yes" style="text;html=1;strokeColor=none;fillColor=none;align=center;verticalAlign=middle;whiteSpace=wrap;rounded=0;fontSize=12;fontColor=#000000;" parent="1" vertex="1">
          <mxGeometry x="-100" y="650" width="30" height="20" as="geometry" />
        </mxCell>
        <mxCell id="HgsCBd9EZ4OtUiYnFxe4-97" value="No" style="text;html=1;strokeColor=none;fillColor=none;align=center;verticalAlign=middle;whiteSpace=wrap;rounded=0;fontSize=12;fontColor=#000000;" parent="1" vertex="1">
          <mxGeometry x="575" y="130" width="30" height="20" as="geometry" />
        </mxCell>
        <mxCell id="HgsCBd9EZ4OtUiYnFxe4-98" value="No" style="text;html=1;strokeColor=none;fillColor=none;align=center;verticalAlign=middle;whiteSpace=wrap;rounded=0;fontSize=12;fontColor=#000000;" parent="1" vertex="1">
          <mxGeometry x="730" y="200" width="30" height="20" as="geometry" />
        </mxCell>
        <mxCell id="HgsCBd9EZ4OtUiYnFxe4-100" value="No" style="text;html=1;strokeColor=none;fillColor=none;align=center;verticalAlign=middle;whiteSpace=wrap;rounded=0;fontSize=12;fontColor=#000000;" parent="1" vertex="1">
          <mxGeometry x="930" y="290" width="30" height="20" as="geometry" />
        </mxCell>
        <mxCell id="HgsCBd9EZ4OtUiYnFxe4-101" value="No" style="text;html=1;strokeColor=none;fillColor=none;align=center;verticalAlign=middle;whiteSpace=wrap;rounded=0;fontSize=12;fontColor=#000000;" parent="1" vertex="1">
          <mxGeometry x="550" y="590" width="30" height="20" as="geometry" />
        </mxCell>
        <mxCell id="HgsCBd9EZ4OtUiYnFxe4-102" value="Yes" style="text;html=1;strokeColor=none;fillColor=none;align=center;verticalAlign=middle;whiteSpace=wrap;rounded=0;fontSize=12;fontColor=#000000;" parent="1" vertex="1">
          <mxGeometry x="560" y="200" width="30" height="20" as="geometry" />
        </mxCell>
        <mxCell id="HgsCBd9EZ4OtUiYnFxe4-103" value="Yes" style="text;html=1;strokeColor=none;fillColor=none;align=center;verticalAlign=middle;whiteSpace=wrap;rounded=0;fontSize=12;fontColor=#000000;" parent="1" vertex="1">
          <mxGeometry x="414" y="330" width="30" height="20" as="geometry" />
        </mxCell>
        <mxCell id="HgsCBd9EZ4OtUiYnFxe4-104" value="Yes" style="text;html=1;strokeColor=none;fillColor=none;align=center;verticalAlign=middle;whiteSpace=wrap;rounded=0;fontSize=12;fontColor=#000000;" parent="1" vertex="1">
          <mxGeometry x="340" y="410" width="30" height="20" as="geometry" />
        </mxCell>
        <mxCell id="HgsCBd9EZ4OtUiYnFxe4-106" value="Yes" style="text;html=1;strokeColor=none;fillColor=none;align=center;verticalAlign=middle;whiteSpace=wrap;rounded=0;fontSize=12;fontColor=#000000;" parent="1" vertex="1">
          <mxGeometry x="240" y="520" width="30" height="20" as="geometry" />
        </mxCell>
        <mxCell id="HgsCBd9EZ4OtUiYnFxe4-107" value="Yes" style="text;html=1;strokeColor=none;fillColor=none;align=center;verticalAlign=middle;whiteSpace=wrap;rounded=0;fontSize=12;fontColor=#000000;" parent="1" vertex="1">
          <mxGeometry x="170" y="650" width="30" height="20" as="geometry" />
        </mxCell>
        <mxCell id="HgsCBd9EZ4OtUiYnFxe4-108" value="Yes" style="text;html=1;strokeColor=none;fillColor=none;align=center;verticalAlign=middle;whiteSpace=wrap;rounded=0;fontSize=12;fontColor=#000000;" parent="1" vertex="1">
          <mxGeometry x="730" y="290" width="30" height="20" as="geometry" />
        </mxCell>
        <mxCell id="HgsCBd9EZ4OtUiYnFxe4-109" value="Yes" style="text;html=1;strokeColor=none;fillColor=none;align=center;verticalAlign=middle;whiteSpace=wrap;rounded=0;fontSize=12;fontColor=#000000;" parent="1" vertex="1">
          <mxGeometry x="590" y="380" width="30" height="20" as="geometry" />
        </mxCell>
        <mxCell id="HgsCBd9EZ4OtUiYnFxe4-110" value="Yes" style="text;html=1;strokeColor=none;fillColor=none;align=center;verticalAlign=middle;whiteSpace=wrap;rounded=0;fontSize=12;fontColor=#000000;" parent="1" vertex="1">
          <mxGeometry x="510" y="480" width="30" height="20" as="geometry" />
        </mxCell>
        <mxCell id="HgsCBd9EZ4OtUiYnFxe4-111" value="Yes" style="text;html=1;strokeColor=none;fillColor=none;align=center;verticalAlign=middle;whiteSpace=wrap;rounded=0;fontSize=12;fontColor=#000000;" parent="1" vertex="1">
          <mxGeometry x="420" y="650" width="30" height="20" as="geometry" />
        </mxCell>
        <mxCell id="HgsCBd9EZ4OtUiYnFxe4-112" value="Yes" style="text;html=1;strokeColor=none;fillColor=none;align=center;verticalAlign=middle;whiteSpace=wrap;rounded=0;fontSize=12;fontColor=#000000;" parent="1" vertex="1">
          <mxGeometry x="560" y="710" width="30" height="20" as="geometry" />
        </mxCell>
        <mxCell id="HgsCBd9EZ4OtUiYnFxe4-113" value="Yes" style="text;html=1;strokeColor=none;fillColor=none;align=center;verticalAlign=middle;whiteSpace=wrap;rounded=0;fontSize=12;fontColor=#000000;" parent="1" vertex="1">
          <mxGeometry x="960" y="410" width="30" height="20" as="geometry" />
        </mxCell>
        <mxCell id="HgsCBd9EZ4OtUiYnFxe4-114" value="Yes" style="text;html=1;strokeColor=none;fillColor=none;align=center;verticalAlign=middle;whiteSpace=wrap;rounded=0;fontSize=12;fontColor=#000000;" parent="1" vertex="1">
          <mxGeometry x="890" y="490" width="30" height="20" as="geometry" />
        </mxCell>
        <mxCell id="HgsCBd9EZ4OtUiYnFxe4-115" value="Yes" style="text;html=1;strokeColor=none;fillColor=none;align=center;verticalAlign=middle;whiteSpace=wrap;rounded=0;fontSize=12;fontColor=#000000;" parent="1" vertex="1">
          <mxGeometry x="797" y="595" width="30" height="20" as="geometry" />
        </mxCell>
        <mxCell id="HgsCBd9EZ4OtUiYnFxe4-116" value="Yes" style="text;html=1;strokeColor=none;fillColor=none;align=center;verticalAlign=middle;whiteSpace=wrap;rounded=0;fontSize=12;fontColor=#000000;" parent="1" vertex="1">
          <mxGeometry x="720" y="710" width="30" height="20" as="geometry" />
        </mxCell>
        <mxCell id="V-IdtBLT0dB0t9Ifpjs--1" value="its inverse ver. or other grammar" style="whiteSpace=wrap;html=1;" vertex="1" parent="1">
          <mxGeometry x="790" y="100" width="120" height="60" as="geometry" />
        </mxCell>
        <mxCell id="V-IdtBLT0dB0t9Ifpjs--3" value="No" style="text;html=1;strokeColor=none;fillColor=none;align=center;verticalAlign=middle;whiteSpace=wrap;rounded=0;fontSize=12;fontColor=#000000;" vertex="1" parent="1">
          <mxGeometry x="730" y="30" width="30" height="20" as="geometry" />
        </mxCell>
        <mxCell id="V-IdtBLT0dB0t9Ifpjs--6" style="edgeStyle=none;rounded=0;orthogonalLoop=1;jettySize=auto;html=1;exitX=0.75;exitY=1;exitDx=0;exitDy=0;" edge="1" parent="1">
          <mxGeometry relative="1" as="geometry">
            <mxPoint x="376.25" y="260" as="sourcePoint" />
            <mxPoint x="376.25" y="260" as="targetPoint" />
          </mxGeometry>
        </mxCell>
        <mxCell id="V-IdtBLT0dB0t9Ifpjs--8" value="&lt;div&gt;Where there is no branch, especially node &quot;no&quot;, the given sentence goes grammatical error or other grammar.&lt;/div&gt;&lt;div&gt;AT LEAST NOW&lt;br&gt; &lt;/div&gt;" style="text;html=1;strokeColor=none;fillColor=none;align=center;verticalAlign=middle;whiteSpace=wrap;rounded=0;" vertex="1" parent="1">
          <mxGeometry x="-90" y="100" width="210" height="50" as="geometry" />
        </mxCell>
      </root>
    </mxGraphModel>
  </diagram>
</mxfile>
